<svg viewBox="0 0 128 128" xml:space="preserve" xmlns="http://www.w3.org/2000/svg"><path d="M121 112c0 1.1-.9 2-2 2H18c-1.1 0-2-.9-2-2V33c0-1.1.9-2 2-2h101c1.1 0 2 .9 2 2v79z" fill="#FFFFFF" class="fill-ffffff"></path><path d="M121 112c0 1.1-.9 2-2 2H18c-1.1 0-2-.9-2-2V33c0-1.1.9-2 2-2h101c1.1 0 2 .9 2 2v79z" fill="none" stroke="#3D3D3D" stroke-miterlimit="10" stroke-width="2" class="stroke-3d3d3d"></path><path d="M56 114h10v2h-9.4c-.3 0-.6-.4-.6-.6V114z" fill="#2b6967" class="fill-53af80"></path><path d="M56 114h10v2h-9.4c-.3 0-.6-.4-.6-.6V114z" fill="none" stroke="#3D3D3D" stroke-miterlimit="10" stroke-width="2" class="stroke-3d3d3d"></path><path d="M56 31h10v-2h-9.4c-.3 0-.6.3-.6.6V31z" fill="#2b6967" class="fill-53af80"></path><path d="M56 31h10v-2h-9.4c-.3 0-.6.3-.6.6V31z" fill="none" stroke="#3D3D3D" stroke-miterlimit="10" stroke-width="2" class="stroke-3d3d3d"></path><path fill="#C1C1C0" d="M6 30h10v83H6z" class="fill-c1c1c0"></path><path fill="none" stroke="#3D3D3D" stroke-miterlimit="10" stroke-width="2" d="M6 30h10v83H6z" class="stroke-3d3d3d"></path><path d="M15.9 49.8S21.8 30 21.1 30h-8.8c-.3 0-.5.1-.5.4l3.8 19.8c.1.3.3 0 .3-.4z" fill="#2b6967" class="fill-53af80"></path><path d="M21 30h-8.7c-.3 0-.5.1-.5.4l3.8 19.7c.1.3.2.2.2-.2" fill="none" stroke="#3D3D3D" stroke-linecap="round" stroke-linejoin="round" stroke-miterlimit="10" stroke-width="2" class="stroke-3d3d3d"></path><path d="M5 49.6c0 .4.3.7.4.4l3.9-19.6c0-.3-.2-.4-.5-.4H5v19.6z" fill="#2b6967" class="fill-53af80"></path><path d="M5 49.6c0 .4.3.7.4.4l3.9-19.6c0-.3-.2-.4-.5-.4H5v19.6z" fill="none" stroke="#3D3D3D" stroke-linecap="round" stroke-linejoin="round" stroke-miterlimit="10" stroke-width="2" class="stroke-3d3d3d"></path><path d="M16 49.6V33.5c0-2.2 1.4-3.5 3.6-3.5h16.1c.4 0 .7.3.3.6L16.7 50.1c-.3.3-.7-.1-.7-.5zM123 49.6V33.5c0-2.2-2.2-3.5-4.4-3.5h-16.3c-.4 0-.7.3-.3.6L121.8 50c.4.4 1.2 0 1.2-.4zM123 94.5v15.9c0 2.2-2.2 3.6-4.4 3.6h-16.3c-.4 0-.7-.3-.3-.6L121.9 94c.3-.3 1.1.1 1.1.5z" fill="#2b6967" class="fill-53af80"></path><path d="M16 49.6V33.5c0-2.2 1.4-3.5 3.6-3.5h16.1c.4 0 .7.3.3.6L16.7 50.1c-.3.3-.7-.1-.7-.5z" fill="none" stroke="#3D3D3D" stroke-miterlimit="10" stroke-width="2" class="stroke-3d3d3d"></path><path d="M15.9 94.1s5.9 19.9 5.2 19.9h-8.8c-.3 0-.5-.2-.5-.5l3.8-19.8c.1-.3.3-.1.3.4z" fill="#2b6967" class="fill-53af80"></path><path d="M21 114h-8.7c-.3 0-.5-.2-.5-.5l3.8-19.7c.1-.3.2-.1.2.3" fill="none" stroke="#3D3D3D" stroke-linecap="round" stroke-linejoin="round" stroke-miterlimit="10" stroke-width="2" class="stroke-3d3d3d"></path><path d="M5 94.2c0-.4.3-.7.4-.3l3.9 19.7c.1.3-.1.5-.4.5H5V94.2z" fill="#2b6967" class="fill-53af80"></path><path d="M5 94.2c0-.4.3-.7.4-.3l3.9 19.7c.1.3-.1.5-.4.5H5V94.2z" fill="none" stroke="#3D3D3D" stroke-linecap="round" stroke-linejoin="round" stroke-miterlimit="10" stroke-width="2" class="stroke-3d3d3d"></path><path d="M16 94.2v16.1c0 2.2 1.4 3.8 3.6 3.8h16.1c.4 0 .7-.5.3-.8L16.7 93.8c-.3-.3-.7-.1-.7.4z" fill="#2b6967" class="fill-53af80"></path><path d="M16 94.2v16.1c0 2.2 1.4 3.8 3.6 3.8h16.1c.4 0 .7-.5.3-.8L16.7 93.8c-.3-.3-.7-.1-.7.4zM123 49.6V33.5c0-2.2-2.2-3.5-4.4-3.5h-16.3c-.4 0-.7.3-.3.6L121.8 50c.4.4 1.2 0 1.2-.4zM123 94.5v15.9c0 2.2-2.2 3.6-4.4 3.6h-16.3c-.4 0-.7-.3-.3-.6L121.9 94c.3-.3 1.1.1 1.1.5z" fill="none" stroke="#3D3D3D" stroke-miterlimit="10" stroke-width="2" class="stroke-3d3d3d"></path><path d="M75 29.5c0-.3-.2-.5-.5-.5h-10c-.3 0-.5.2-.5.5v86c0 .3.2.5.5.5h10c.3 0 .5-.2.5-.5v-86z" fill="#108690" class="fill-8dcea8"></path><path d="M75 29.5c0-.3-.2-.5-.5-.5h-10c-.3 0-.5.2-.5.5v86c0 .3.2.5.5.5h10c.3 0 .5-.2.5-.5v-86z" fill="none" stroke="#3D3D3D" stroke-miterlimit="10" stroke-width="2" class="stroke-3d3d3d"></path><path fill="none" stroke="#3D3D3D" stroke-miterlimit="10" stroke-width="2" d="m64.4 89.5 5.5 4.2 4.7-3.8" class="stroke-3d3d3d"></path><path d="M77 85.5c0 .3-.2.5-.5.5h-13c-.3 0-.5-.2-.5-.5v-1c0-.3.2-.5.5-.5h13c.3 0 .5.2.5.5v1z" fill="#E2E2E2" class="fill-e2e2e2"></path><path d="M77 85.5c0 .3-.2.5-.5.5h-13c-.3 0-.5-.2-.5-.5v-1c0-.3.2-.5.5-.5h13c.3 0 .5.2.5.5v1z" fill="none" stroke="#3D3D3D" stroke-miterlimit="10" stroke-width="2" class="stroke-3d3d3d"></path><circle cx="69.5" cy="41.7" fill="#3D3D3D" r="1.7" class="fill-3d3d3d"></circle><circle cx="69.5" cy="47.7" fill="#3D3D3D" r="1.7" class="fill-3d3d3d"></circle><circle cx="69.5" cy="53.7" fill="#3D3D3D" r="1.7" class="fill-3d3d3d"></circle><circle cx="69.9" cy="59.7" fill="#3D3D3D" r="1.7" class="fill-3d3d3d"></circle><ellipse cx="69.5" cy="65.9" fill="#3D3D3D" rx="1.7" ry="1.9" class="fill-3d3d3d"></ellipse><circle cx="69.5" cy="76" fill="#3D3D3D" r="1.7" class="fill-3d3d3d"></circle><path d="M79 61c0-1.1-.9-2-2-2H62c-1.1 0-2 .9-2 2v9c0 1.1.9 2 2 2h15c1.1 0 2-.9 2-2v-9zm-2 9H63v-9h14v9z" fill="#E2E2E2" class="fill-e2e2e2"></path><path d="M79 70c0 1.1-.9 2-2 2H62c-1.1 0-2-.9-2-2v-9c0-1.1.9-2 2-2h15c1.1 0 2 .9 2 2v9z" fill="none" stroke="#3D3D3D" stroke-miterlimit="10" stroke-width="2" class="stroke-3d3d3d"></path><path fill="none" stroke="#3D3D3D" stroke-linejoin="round" stroke-miterlimit="10" stroke-width="2" d="M63 62h13v7H63z" class="stroke-3d3d3d"></path><path fill="#FFFFFF" d="M69 66h1v7h-1z" class="fill-ffffff"></path><path fill="#108690" d="m110.991 60.41-.842 3.294-13.37-3.421.843-3.294z" class="fill-8dcea8"></path><path fill="none" stroke="#3D3D3D" stroke-linejoin="round" stroke-miterlimit="10" stroke-width="2" d="M69 66h1v7h-1z" class="stroke-3d3d3d"></path><path d="m108.8 67-12.4-3.2c-.3-.1-.4-.3-.4-.6l2.3-9.1c.1-.3.3-.4.6-.4l12.4 3.2c.3.1.4.3.4.6l-2.3 9.1c-.1.3-.3.5-.6.4z" fill="none" stroke="#3D3D3D" stroke-miterlimit="10" stroke-width="2" class="stroke-3d3d3d"></path><path fill="none" stroke="#3D3D3D" stroke-linejoin="round" stroke-miterlimit="10" stroke-width="2" d="m36.7 56.4 5.8-1-1.6-1 3.4-5.3-1.8.3-.1-2.7-2.2 1.4-.8-2.2-2 4.2-1-6.4-1.8 1.9-2.8-2.8-.4 3.9-2.6-.3 3.3 5.6-4.2-2 .7 2.2-2.5.3 1.7 2.1-1.7 1 6.1 1.9-.7 1.8z" class="stroke-3d3d3d"></path><path fill="none" stroke="#3D3D3D" stroke-miterlimit="10" stroke-width="2" d="m97.6 57 13.4 3.4M96.8 60.4l13.3 3.4M89.5 106.2s3.4-7.5.1-18.5M102.3 102.3s-7.5-4.2-10.8-15.2M87.6 106.8l6.2-2M97.7 103.7l6.2-1.9M92.5 105.3c-.6-1.8.4-3.8 2.2-4.3 1.8-.5 3.7.5 4.3 2.3M89.4 87.7 88 85.8l1.4-1.9 2.3.8-.1 2.3zM89.5 84l-.6-1.9M89.5 95.1l6.1-1.8M88.9 100.4l10.1-3" class="stroke-3d3d3d"></path><path d="M111.1 83.8c-1.9-1.3-3.6-2.7-5.2-4.3-.8-.8-1.7-1.7-2-2.8-.3-1.1.1-2.6 1.2-3 .5-.2 1.1-.2 1.6 0 1.3.4 2.3 1.4 2.7 2.7 0-.5.4-.9.8-1.2 1.2-.8 2.6-1.1 4-.9 1.1.2 2.2.9 2.3 1.9.1.7-.4 1.4-.8 2-.8.9-1.8 1.7-2.7 2.5-1 .8-1.7 1.9-1.9 3.1z" fill="none" stroke="#3D3D3D" stroke-linejoin="round" stroke-miterlimit="10" stroke-width="2" class="stroke-3d3d3d"></path><path d="M79 28v-2.4c0-4.2-1.6-8.5-13.5-8.5S52 21.4 52 25.6V28h-3v-2.4c0-12 12.3-12 17-12 4.7 0 17 0 17 12V28h-4z" fill="#C1C1C0" class="fill-c1c1c0"></path><path d="M50.6 28H38.8c-.3 0-.8.3-.8.6V31h13v-2.4c0-.3-.1-.6-.4-.6z" fill="#FFFFFF" class="fill-ffffff"></path><path d="M79 28v-2.4c0-4.2-1.6-8.5-13.5-8.5S52 21.4 52 25.6V28h-3v-2.4c0-12 12.3-12 17-12 4.7 0 17 0 17 12V28h-4z" fill="none" stroke="#3D3D3D" stroke-miterlimit="10" stroke-width="2" class="stroke-3d3d3d"></path><path d="M90.8 28H79c-.3 0 0 .3 0 .6V31h12v-2.4c0-.3.1-.6-.2-.6z" fill="#FFFFFF" class="fill-ffffff"></path><path d="M90.8 28H79c-.3 0 0 .3 0 .6V31h12v-2.4c0-.3.1-.6-.2-.6z" fill="none" stroke="#3D3D3D" stroke-miterlimit="10" stroke-width="2" class="stroke-3d3d3d"></path><path d="M93.8 28H82c-.3 0-1 .3-1 .6V31h13v-2.4c0-.3.1-.6-.2-.6z" fill="#FFFFFF" class="fill-ffffff"></path><path d="M93.8 28H82c-.3 0-1 .3-1 .6V31h13v-2.4c0-.3.1-.6-.2-.6zM50.6 28H38.8c-.3 0-.8.3-.8.6V31h13v-2.4c0-.3-.1-.6-.4-.6z" fill="none" stroke="#3D3D3D" stroke-miterlimit="10" stroke-width="2" class="stroke-3d3d3d"></path><path fill="#FFFFFF" d="m26.9 85-5.2-6.1 4.1-6.8 7.8 1.8.7 7.9zM53.6 28H41.8c-.3 0-.8.3-.8.6V31h13v-2.4c0-.3-.1-.6-.4-.6z" class="fill-ffffff"></path><path fill="none" stroke="#3D3D3D" stroke-linejoin="round" stroke-miterlimit="10" stroke-width="2" d="m26.9 85-5.2-6.1 4.1-6.8 7.8 1.8.7 7.9z" class="stroke-3d3d3d"></path><path d="M53.6 28H41.8c-.3 0-.8.3-.8.6V31h13v-2.4c0-.3-.1-.6-.4-.6z" fill="none" stroke="#3D3D3D" stroke-miterlimit="10" stroke-width="2" class="stroke-3d3d3d"></path><path fill="#E2E2E2" d="m30.6 81.1 7.4-8.4 3.6 10.7z" class="fill-e2e2e2"></path><path fill="none" stroke="#3D3D3D" stroke-linejoin="round" stroke-miterlimit="10" stroke-width="2" d="m30.6 81.1 7.4-8.4 3.6 10.7z" class="stroke-3d3d3d"></path><path fill="none" stroke="#3D3D3D" stroke-miterlimit="10" stroke-width="2" d="M6 61h10M6 66h10M6 71h10M6 76h10M6 81h10" class="stroke-3d3d3d"></path></svg>