<svg viewBox="0 0 128 128" xml:space="preserve" xmlns="http://www.w3.org/2000/svg"><path d="M45.3 84.6c.7 3.1-1.2 6.2-4.3 6.9l-22.4 5.3L7.7 50.5l22.4-5.3c3.1-.7 6.2 1.2 6.9 4.3-.7-3.1 1.2-6.2 4.3-6.9l70.1-16.4 10.8 46.3-70 16.4c-3.1.7-6.2-1.2-6.9-4.3z" fill="#FFFFFF" class="fill-ffffff"></path><path d="M41.4 42.6c-3.1.7-5 3.8-4.3 6.9-.7-3.1-3.8-5-6.9-4.3L7.7 50.5l2 8.4 103.7-24.3-2-8.4-70 16.4z" fill="#2b6967" class="fill-8dcea8"></path><path d="M45.3 84.6c.7 3.1-1.2 6.2-4.3 6.9l-22.4 5.3L7.7 50.5l22.4-5.3c3.1-.7 6.2 1.2 6.9 4.3-.7-3.1 1.2-6.2 4.3-6.9l70.1-16.4 10.8 46.3-70 16.4c-3.1.7-6.2-1.2-6.9-4.3z" fill="none" stroke="#3D3D3D" stroke-miterlimit="10" stroke-width="2" class="stroke-3d3d3d"></path><path fill="#108690" d="m50.201 80.485 65.913-15.456.982 4.186-65.913 15.456zM20.759 87.402l18.206-4.27.982 4.187-18.206 4.27z" class="fill-53af80"></path><path d="M40.5 79.2c0 3.2-2.6 5.8-5.8 5.8H12V38h22.8c3.2 0 5.8 2.6 5.8 5.8 0-3.2 2.6-5.8 5.8-5.8H118v47H46.3c-3.2 0-5.8-2.6-5.8-5.8z" fill="#FFFFFF" class="fill-ffffff"></path><path d="M46.3 38c-3.2 0-5.8 2.6-5.8 5.8 0-3.2-2.6-5.8-5.8-5.8H12v8h106v-8H46.3z" fill="#2b6967" class="fill-8dcea8"></path><path d="M40 79.6c0 3.2-2.1 5.4-5.2 5.4H12V38h22.8c3.2 0 5.2 2 5.2 5.2 0-3.2 3.1-5.2 6.3-5.2H118v47H46.3c-3.2 0-6.3-2.2-6.3-5.4z" fill="none" stroke="#3D3D3D" stroke-miterlimit="10" stroke-width="2" class="stroke-3d3d3d"></path><path fill="none" stroke="#3D3D3D" stroke-dasharray="3,4" stroke-linecap="square" stroke-linejoin="round" stroke-miterlimit="10" stroke-width="2" d="M40 46v31" class="stroke-3d3d3d"></path><path fill="#108690" d="M46 77h68v4H46zM16 77h19v4H16z" class="fill-53af80"></path><path fill="none" stroke="#3D3D3D" stroke-miterlimit="10" stroke-width="2" d="M19 53h15M19 57h15M19 61h7M73 53h37M73 57h37M73 61h22M46 73h16M78 73h10M99 73h15M51.9 60.9l11-11M60 53v8h-1.1L56 57.9" class="stroke-3d3d3d"></path><path fill="none" stroke="#3D3D3D" stroke-miterlimit="10" stroke-width="2" d="M61 53h-9v1l3.6 3.5M52 61v4M52 61h-4" class="stroke-3d3d3d"></path></svg>