<svg viewBox="0 0 128 128" xml:space="preserve" xmlns="http://www.w3.org/2000/svg"><path d="M40 122.3c-7.2.7-12.9-4-14.1-11.9-1-6.9-7.3-45.4-1.7-63.6 5-16 17.7-17.8 24.3-15.7 9.5 3.1 15.5 10.8 12.7 24-3.1 14.7-11.9 23.5-10 41.4 2 18.8-1 24.8-11.2 25.8zM74.3 96.9c6.8 2.5 13.5-.7 16.6-8.1 2.7-6.4 18.3-42.2 17.4-61.2C107.5 10.8 95.6 6 88.7 6.4c-10 .7-17.7 6.7-18.2 20.1-.6 15 5.7 25.7-.6 42.6-6.6 17.7-5.2 24.2 4.4 27.8z" fill="#e2e2e2" class="fill-e2e2e2"></path><path d="M25.8 101.3c-.4 0-.8 0-1.2.1.6 4.2 1.1 7.4 1.3 8.9.4 2.7 1.3 5.1 2.7 7 3.2-1.2 5.4-4.2 5.4-7.7 0-4.6-3.7-8.3-8.2-8.3zM52 82c-1.5-2.3-4-3.8-6.9-3.8-4.6 0-8.3 3.7-8.3 8.3 0 4.6 3.7 8.3 8.3 8.3 2.3 0 4.4-.9 5.9-2.4-.1-3.9.3-7.3 1-10.4zM43.2 110.9c0 3.5 2.2 6.6 5.4 7.7 2.6-3 3.5-7.9 3.1-16h-.3c-4.5.1-8.2 3.8-8.2 8.3z" fill="#FFFFFF" class="fill-ffffff"></path><circle cx="30.7" cy="60.2" fill="#FFFFFF" r="8.3" class="fill-ffffff"></circle><circle cx="53.3" cy="54.4" fill="#FFFFFF" r="8.3" class="fill-ffffff"></circle><path d="M31.3 35c1.2 3 4.2 5.1 7.6 5.1 4.6 0 8.3-3.7 8.3-8.3 0-.4 0-.8-.1-1.1-4.4-.9-10.6-.2-15.8 4.3z" fill="#FFFFFF" class="fill-ffffff"></path><path d="M40 122.3c-7.2.7-12.9-4-14.1-11.9-1-6.9-7.3-45.4-1.7-63.6 5-16 17.7-17.8 24.3-15.7 9.5 3.1 15.5 10.8 12.7 24-3.1 14.7-11.9 23.5-10 41.4 2 18.8-1 24.8-11.2 25.8z" fill="none" stroke="#3D3D3D" stroke-linejoin="round" stroke-miterlimit="10" stroke-width="2" class="stroke-3d3d3d"></path><path d="M27.7 93.8c-1 0-1.9-.6-2.3-1.5-.4-.8-8.6-19.8-1.4-34.9 3.6-7.6 10.4-12.8 20.3-15.5.9-.3 2 .1 2.6.8 20.2 24.4 4.1 43.8-1.3 50.2-.9 1.1-2.5 1.2-3.5.3-1.1-.9-1.2-2.5-.3-3.5 7.9-9.5 16.6-24.1 2.3-42.5-7.5 2.4-12.8 6.5-15.5 12.4-6.2 13.1 1.4 30.6 1.5 30.7.6 1.3 0 2.7-1.3 3.3-.4.1-.8.2-1.1.2z" fill="#108690" class="fill-53af80"></path><path d="M27.7 93.8c-1 0-1.9-.6-2.3-1.5-.4-.8-8.6-19.8-1.4-34.9 3.6-7.6 10.4-12.8 20.3-15.5.9-.3 2 .1 2.6.8 20.2 24.4 4.1 43.8-1.3 50.2-.9 1.1-2.5 1.2-3.5.3-1.1-.9-1.2-2.5-.3-3.5 7.9-9.5 16.6-24.1 2.3-42.5-7.5 2.4-12.8 6.5-15.5 12.4-6.2 13.1 1.4 30.6 1.5 30.7.6 1.3 0 2.7-1.3 3.3-.4.1-.8.2-1.1.2z" fill="none" stroke="#3D3D3D" stroke-linejoin="round" stroke-miterlimit="10" stroke-width="2" class="stroke-3d3d3d"></path><path d="M93.3 80.1c.4.1.8.2 1.1.4-1.6 3.9-2.9 6.9-3.5 8.3-1.1 2.6-2.6 4.6-4.4 6.1-2.8-1.9-4.2-5.4-3.3-8.8 1.2-4.5 5.7-7.2 10.1-6zM72.6 54.8c2-1.9 4.8-2.7 7.7-2 4.4 1.1 7.1 5.6 5.9 10-1.1 4.4-5.6 7.1-10 5.9-2.2-.6-4-2-5.1-3.8 1-3.5 1.5-6.9 1.5-10.1zM74 85c-.9 3.4-3.8 5.8-7.1 6.1-1.8-3.5-1.5-8.6.9-16.2.1 0 .2 0 .3.1 4.4 1.1 7.1 5.6 5.9 10z" fill="#FFFFFF" class="fill-ffffff"></path><circle cx="98.7" cy="39.1" fill="#FFFFFF" r="8.3" class="fill-ffffff"></circle><circle cx="78.2" cy="27.7" fill="#FFFFFF" r="8.3" class="fill-ffffff"></circle><path d="M104.4 14.5c-1.9 2.6-5.3 3.9-8.6 3-4.4-1.1-7.1-5.6-5.9-10 .1-.4.2-.7.4-1.1 4.4.2 10.2 2.4 14.1 8.1z" fill="#FFFFFF" class="fill-ffffff"></path><path d="M74.3 96.9c6.8 2.5 13.5-.7 16.6-8.1 2.7-6.4 18.3-42.2 17.4-61.2C107.5 10.8 95.6 6 88.7 6.4c-10 .7-17.7 6.7-18.2 20.1-.6 15 5.7 25.7-.6 42.6-6.6 17.7-5.2 24.2 4.4 27.8z" fill="none" stroke="#3D3D3D" stroke-linejoin="round" stroke-miterlimit="10" stroke-width="2" class="stroke-3d3d3d"></path><path d="M93.3 72.3c.9.2 2-.1 2.6-.9.5-.7 13.3-17 10-33.5-1.6-8.3-6.9-15-15.8-20.1-.8-.5-1.9-.4-2.7.2-25.7 18.6-14.8 41.5-11.2 49 .6 1.2 2.1 1.8 3.3 1.2 1.2-.6 1.8-2.1 1.2-3.3-5.3-11.2-10.1-27.6 8.3-41.8 6.7 4.2 10.7 9.5 12 15.8 2.8 14.2-8.9 29.3-9.1 29.4-.9 1.1-.7 2.7.4 3.5.3.2.7.4 1 .5z" fill="#108690" class="fill-53af80"></path><path d="M93.3 72.3c.9.2 2-.1 2.6-.9.5-.7 13.3-17 10-33.5-1.6-8.3-6.9-15-15.8-20.1-.8-.5-1.9-.4-2.7.2-25.7 18.6-14.8 41.5-11.2 49 .6 1.2 2.1 1.8 3.3 1.2 1.2-.6 1.8-2.1 1.2-3.3-5.3-11.2-10.1-27.6 8.3-41.8 6.7 4.2 10.7 9.5 12 15.8 2.8 14.2-8.9 29.3-9.1 29.4-.9 1.1-.7 2.7.4 3.5.3.2.7.4 1 .5z" fill="none" stroke="#3D3D3D" stroke-linejoin="round" stroke-miterlimit="10" stroke-width="2" class="stroke-3d3d3d"></path></svg>