<svg width="140" height="31" viewBox="0 0 140 31" fill="none" xmlns="http://www.w3.org/2000/svg">
<circle cx="15.5" cy="15.5" r="15.5" fill="#FCCF14"/>
<path d="M10.5427 23.3977L10.3897 20.2187L16.0847 14.2177H19.1447L14.0107 19.7427L12.4807 21.3747L10.5427 23.3977ZM8.07769 26.1177V14.2177H10.8147V26.1177H8.07769ZM16.2207 26.1177L11.9877 20.9327L13.7897 18.9777L19.4337 26.1177H16.2207ZM25.8855 26.1177V24.3327L25.7155 23.9417V20.7457C25.7155 20.179 25.5398 19.737 25.1885 19.4197C24.8485 19.1023 24.3215 18.9437 23.6075 18.9437C23.1201 18.9437 22.6385 19.023 22.1625 19.1817C21.6978 19.329 21.3011 19.533 20.9725 19.7937L20.0205 17.9407C20.5191 17.5893 21.1198 17.3173 21.8225 17.1247C22.5251 16.932 23.2391 16.8357 23.9645 16.8357C25.3585 16.8357 26.4408 17.1643 27.2115 17.8217C27.9821 18.479 28.3675 19.5047 28.3675 20.8987V26.1177H25.8855ZM23.0975 26.2537C22.3835 26.2537 21.7715 26.1347 21.2615 25.8967C20.7515 25.6473 20.3605 25.313 20.0885 24.8937C19.8165 24.4743 19.6805 24.004 19.6805 23.4827C19.6805 22.9387 19.8108 22.4627 20.0715 22.0547C20.3435 21.6467 20.7685 21.3293 21.3465 21.1027C21.9245 20.8647 22.6781 20.7457 23.6075 20.7457H26.0385V22.2927H23.8965C23.2731 22.2927 22.8425 22.3947 22.6045 22.5987C22.3778 22.8027 22.2645 23.0577 22.2645 23.3637C22.2645 23.7037 22.3948 23.9757 22.6555 24.1797C22.9275 24.3723 23.2958 24.4687 23.7605 24.4687C24.2025 24.4687 24.5991 24.3667 24.9505 24.1627C25.3018 23.9473 25.5568 23.6357 25.7155 23.2277L26.1235 24.4517C25.9308 25.041 25.5795 25.4887 25.0695 25.7947C24.5595 26.1007 23.9021 26.2537 23.0975 26.2537ZM30.7676 26.1177V16.9717H33.3006V19.5557L32.9436 18.8077C33.2156 18.1617 33.652 17.6743 34.2526 17.3457C34.8533 17.0057 35.5843 16.8357 36.4456 16.8357V19.2837C36.3323 19.2723 36.2303 19.2667 36.1396 19.2667C36.049 19.2553 35.9526 19.2497 35.8506 19.2497C35.1253 19.2497 34.536 19.4593 34.0826 19.8787C33.6406 20.2867 33.4196 20.927 33.4196 21.7997V26.1177H30.7676ZM38.0391 26.1177V16.9717H40.6911V26.1177H38.0391ZM39.3651 15.6967C38.8778 15.6967 38.4811 15.555 38.1751 15.2717C37.8691 14.9883 37.7161 14.637 37.7161 14.2177C37.7161 13.7983 37.8691 13.447 38.1751 13.1637C38.4811 12.8803 38.8778 12.7387 39.3651 12.7387C39.8525 12.7387 40.2491 12.8747 40.5551 13.1467C40.8611 13.4073 41.0141 13.7473 41.0141 14.1667C41.0141 14.6087 40.8611 14.977 40.5551 15.2717C40.2605 15.555 39.8638 15.6967 39.3651 15.6967ZM48.5584 26.2537C47.7537 26.2537 47.0624 26.0837 46.4844 25.7437C45.9064 25.4037 45.4644 24.888 45.1584 24.1967C44.8524 23.494 44.6994 22.61 44.6994 21.5447C44.6994 20.468 44.8581 19.584 45.1754 18.8927C45.5041 18.2013 45.9574 17.6857 46.5354 17.3457C47.1134 17.0057 47.7877 16.8357 48.5584 16.8357C49.4197 16.8357 50.1904 17.0283 50.8704 17.4137C51.5617 17.799 52.1057 18.343 52.5024 19.0457C52.9104 19.7483 53.1144 20.5813 53.1144 21.5447C53.1144 22.4967 52.9104 23.324 52.5024 24.0267C52.1057 24.7293 51.5617 25.279 50.8704 25.6757C50.1904 26.061 49.4197 26.2537 48.5584 26.2537ZM43.1524 26.1177V13.5037H45.8044V18.8247L45.6344 21.5277L45.6854 24.2477V26.1177H43.1524ZM48.0994 24.0777C48.5414 24.0777 48.9324 23.9757 49.2724 23.7717C49.6237 23.5677 49.9014 23.2787 50.1054 22.9047C50.3207 22.5193 50.4284 22.066 50.4284 21.5447C50.4284 21.012 50.3207 20.5587 50.1054 20.1847C49.9014 19.8107 49.6237 19.5217 49.2724 19.3177C48.9324 19.1137 48.5414 19.0117 48.0994 19.0117C47.6574 19.0117 47.2607 19.1137 46.9094 19.3177C46.5581 19.5217 46.2804 19.8107 46.0764 20.1847C45.8724 20.5587 45.7704 21.012 45.7704 21.5447C45.7704 22.066 45.8724 22.5193 46.0764 22.9047C46.2804 23.2787 46.5581 23.5677 46.9094 23.7717C47.2607 23.9757 47.6574 24.0777 48.0994 24.0777ZM54.8897 26.1177V16.9717H57.5417V26.1177H54.8897ZM56.2157 15.6967C55.7284 15.6967 55.3317 15.555 55.0257 15.2717C54.7197 14.9883 54.5667 14.637 54.5667 14.2177C54.5667 13.7983 54.7197 13.447 55.0257 13.1637C55.3317 12.8803 55.7284 12.7387 56.2157 12.7387C56.703 12.7387 57.0997 12.8747 57.4057 13.1467C57.7117 13.4073 57.8647 13.7473 57.8647 14.1667C57.8647 14.6087 57.7117 14.977 57.4057 15.2717C57.111 15.555 56.7144 15.6967 56.2157 15.6967ZM62.196 24.2477L62.264 21.0177L66.531 16.9717H69.693L65.596 21.1367L64.219 22.2587L62.196 24.2477ZM60.003 26.1177V13.5037H62.655V26.1177H60.003ZM66.82 26.1177L63.726 22.2757L65.392 20.2187L70.033 26.1177H66.82ZM72.3947 26.2537C71.9413 26.2537 71.5503 26.1007 71.2217 25.7947C70.9043 25.4773 70.7457 25.075 70.7457 24.5877C70.7457 24.1003 70.9043 23.7093 71.2217 23.4147C71.5503 23.1087 71.9413 22.9557 72.3947 22.9557C72.8593 22.9557 73.2503 23.1087 73.5677 23.4147C73.885 23.7093 74.0437 24.1003 74.0437 24.5877C74.0437 25.075 73.885 25.4773 73.5677 25.7947C73.2503 26.1007 72.8593 26.2537 72.3947 26.2537ZM80.1613 26.2537C79.1753 26.2537 78.2969 26.0553 77.5263 25.6587C76.7556 25.2507 76.1493 24.6897 75.7073 23.9757C75.2766 23.2617 75.0613 22.4513 75.0613 21.5447C75.0613 20.6267 75.2766 19.8163 75.7073 19.1137C76.1493 18.3997 76.7556 17.8443 77.5263 17.4477C78.2969 17.0397 79.1753 16.8357 80.1613 16.8357C81.1246 16.8357 81.9633 17.0397 82.6773 17.4477C83.3913 17.8443 83.9183 18.4167 84.2583 19.1647L82.2013 20.2697C81.9633 19.839 81.6629 19.5217 81.3003 19.3177C80.9489 19.1137 80.5636 19.0117 80.1443 19.0117C79.6909 19.0117 79.2829 19.1137 78.9203 19.3177C78.5576 19.5217 78.2686 19.8107 78.0533 20.1847C77.8493 20.5587 77.7473 21.012 77.7473 21.5447C77.7473 22.0773 77.8493 22.5307 78.0533 22.9047C78.2686 23.2787 78.5576 23.5677 78.9203 23.7717C79.2829 23.9757 79.6909 24.0777 80.1443 24.0777C80.5636 24.0777 80.9489 23.9813 81.3003 23.7887C81.6629 23.5847 81.9633 23.2617 82.2013 22.8197L84.2583 23.9417C83.9183 24.6783 83.3913 25.2507 82.6773 25.6587C81.9633 26.0553 81.1246 26.2537 80.1613 26.2537ZM90.021 26.2537C89.0463 26.2537 88.1793 26.0497 87.42 25.6417C86.672 25.2337 86.077 24.6783 85.635 23.9757C85.2043 23.2617 84.989 22.4513 84.989 21.5447C84.989 20.6267 85.2043 19.8163 85.635 19.1137C86.077 18.3997 86.672 17.8443 87.42 17.4477C88.1793 17.0397 89.0463 16.8357 90.021 16.8357C90.9843 16.8357 91.8457 17.0397 92.605 17.4477C93.3643 17.8443 93.9593 18.394 94.39 19.0967C94.8207 19.7993 95.036 20.6153 95.036 21.5447C95.036 22.4513 94.8207 23.2617 94.39 23.9757C93.9593 24.6783 93.3643 25.2337 92.605 25.6417C91.8457 26.0497 90.9843 26.2537 90.021 26.2537ZM90.021 24.0777C90.463 24.0777 90.8597 23.9757 91.211 23.7717C91.5623 23.5677 91.84 23.2787 92.044 22.9047C92.248 22.5193 92.35 22.066 92.35 21.5447C92.35 21.012 92.248 20.5587 92.044 20.1847C91.84 19.8107 91.5623 19.5217 91.211 19.3177C90.8597 19.1137 90.463 19.0117 90.021 19.0117C89.579 19.0117 89.1823 19.1137 88.831 19.3177C88.4797 19.5217 88.1963 19.8107 87.981 20.1847C87.777 20.5587 87.675 21.012 87.675 21.5447C87.675 22.066 87.777 22.5193 87.981 22.9047C88.1963 23.2787 88.4797 23.5677 88.831 23.7717C89.1823 23.9757 89.579 24.0777 90.021 24.0777ZM108.522 16.8357C109.247 16.8357 109.887 16.983 110.443 17.2777C111.009 17.561 111.451 18.003 111.769 18.6037C112.097 19.193 112.262 19.9523 112.262 20.8817V26.1177H109.61V21.2897C109.61 20.553 109.457 20.009 109.151 19.6577C108.845 19.3063 108.414 19.1307 107.859 19.1307C107.473 19.1307 107.128 19.2213 106.822 19.4027C106.516 19.5727 106.278 19.8333 106.108 20.1847C105.938 20.536 105.853 20.9837 105.853 21.5277V26.1177H103.201V21.2897C103.201 20.553 103.048 20.009 102.742 19.6577C102.447 19.3063 102.022 19.1307 101.467 19.1307C101.081 19.1307 100.736 19.2213 100.43 19.4027C100.124 19.5727 99.8857 19.8333 99.7157 20.1847C99.5457 20.536 99.4607 20.9837 99.4607 21.5277V26.1177H96.8087V16.9717H99.3417V19.4707L98.8657 18.7397C99.183 18.1163 99.6307 17.646 100.209 17.3287C100.798 17 101.467 16.8357 102.215 16.8357C103.053 16.8357 103.784 17.051 104.408 17.4817C105.042 17.901 105.462 18.547 105.666 19.4197L104.731 19.1647C105.037 18.4507 105.524 17.884 106.193 17.4647C106.873 17.0453 107.649 16.8357 108.522 16.8357Z" fill="white"/>
</svg>
