<svg width="13" height="14" viewBox="0 0 13 14" fill="none" xmlns="http://www.w3.org/2000/svg">
<path d="M10.5625 5.51026C10.5625 6.72623 10.1842 7.84948 9.54687 8.76079L12.7613 12.1173C13.0787 12.4484 13.0787 12.9862 12.7613 13.3174C12.4439 13.6485 11.9285 13.6485 11.6111 13.3174L8.39668 9.96086C7.52324 10.6284 6.44668 11.0205 5.28125 11.0205C2.36387 11.0205 0 8.55415 0 5.51026C0 2.46637 2.36387 0 5.28125 0C8.19863 0 10.5625 2.46637 10.5625 5.51026ZM5.28125 9.32506C7.2998 9.32506 8.9375 7.61635 8.9375 5.51026C8.9375 3.40418 7.2998 1.69547 5.28125 1.69547C3.2627 1.69547 1.625 3.40418 1.625 5.51026C1.625 7.61635 3.2627 9.32506 5.28125 9.32506Z" fill="black"/>
</svg>
